<svg width="24" height="24" viewBox="0 0 24 24" fill="none" xmlns="http://www.w3.org/2000/svg">
<path d="M19.618 21.25C19.618 17.648 15.602 14.72 12 14.72C8.39796 14.72 4.38196 17.648 4.38196 21.25M12 11.456C13.1544 11.456 14.2616 10.9974 15.078 10.181C15.8943 9.36469 16.353 8.25749 16.353 7.103C16.353 5.94851 15.8943 4.84131 15.078 4.02496C14.2616 3.20862 13.1544 2.75 12 2.75C10.8455 2.75 9.73827 3.20862 8.92192 4.02496C8.10558 4.84131 7.64696 5.94851 7.64696 7.103C7.64696 8.25749 8.10558 9.36469 8.92192 10.181C9.73827 10.9974 10.8455 11.456 12 11.456Z" stroke="#355F2E" stroke-width="1.5" stroke-linecap="round" stroke-linejoin="round"/>
</svg>
